<svg id="SvgjsSvg1025" width="288" height="288" xmlns="http://www.w3.org/2000/svg" version="1.1" xmlns:xlink="http://www.w3.org/1999/xlink" xmlns:svgjs="http://svgjs.com/svgjs"><defs id="SvgjsDefs1026"></defs><g id="SvgjsG1027" transform="matrix(1,0,0,1,0,0)"><svg xmlns="http://www.w3.org/2000/svg" id="Layer_1" x="0" y="0" version="1.1" viewBox="0 0 29 29" xml:space="preserve" width="288" height="288"><path d="M4 20c-1.103 0-2-.897-2-2V7c0-1.103.897-2 2-2h17c1.103 0 2 .897 2 2H4v13z" fill="#ffffff" class="color000 svgShape"></path><path d="M25 24H8c-1.103 0-2-.897-2-2V11c0-1.103.897-2 2-2h17c1.103 0 2 .897 2 2v11c0 1.103-.897 2-2 2zM8 11h-.001L8 22h17V11H8z" fill="#ffffff" class="color000 svgShape"></path></svg></g></svg>